<?xml version="1.0" encoding="UTF-8" standalone="no"?>
<!DOCTYPE svg PUBLIC "-//W3C//DTD SVG 1.1//EN"
 "http://www.w3.org/Graphics/SVG/1.1/DTD/svg11.dtd">
<!-- Generated by graphviz version 2.40.1 (20161225.0304)
 -->
<!-- Title: snakemake_dag Pages: 1 -->
<svg width="348pt" height="764pt"
 viewBox="0.00 0.00 348.00 764.00" xmlns="http://www.w3.org/2000/svg" xmlns:xlink="http://www.w3.org/1999/xlink">
<g id="graph0" class="graph" transform="scale(1 1) rotate(0) translate(4 760)">
<title>snakemake_dag</title>
<polygon fill="#ffffff" stroke="transparent" points="-4,4 -4,-760 344,-760 344,4 -4,4"/>
<!-- 0 -->
<g id="node1" class="node">
<title>0</title>
<path fill="none" stroke="#569ad8" stroke-width="2" d="M237,-36C237,-36 207,-36 207,-36 201,-36 195,-30 195,-24 195,-24 195,-12 195,-12 195,-6 201,0 207,0 207,0 237,0 237,0 243,0 249,-6 249,-12 249,-12 249,-24 249,-24 249,-30 243,-36 237,-36"/>
<text text-anchor="middle" x="222" y="-15.5" font-family="sans" font-size="10.00" fill="#000000">all</text>
</g>
<!-- 1 -->
<g id="node2" class="node">
<title>1</title>
<path fill="none" stroke="#97d856" stroke-width="2" d="M245.5,-108C245.5,-108 198.5,-108 198.5,-108 192.5,-108 186.5,-102 186.5,-96 186.5,-96 186.5,-84 186.5,-84 186.5,-78 192.5,-72 198.5,-72 198.5,-72 245.5,-72 245.5,-72 251.5,-72 257.5,-78 257.5,-84 257.5,-84 257.5,-96 257.5,-96 257.5,-102 251.5,-108 245.5,-108"/>
<text text-anchor="middle" x="222" y="-87.5" font-family="sans" font-size="10.00" fill="#000000">tab_format</text>
</g>
<!-- 1&#45;&gt;0 -->
<g id="edge1" class="edge">
<title>1&#45;&gt;0</title>
<path fill="none" stroke="#c0c0c0" stroke-width="2" d="M222,-71.8314C222,-64.131 222,-54.9743 222,-46.4166"/>
<polygon fill="#c0c0c0" stroke="#c0c0c0" stroke-width="2" points="225.5001,-46.4132 222,-36.4133 218.5001,-46.4133 225.5001,-46.4132"/>
</g>
<!-- 2 -->
<g id="node3" class="node">
<title>2</title>
<path fill="none" stroke="#56d89a" stroke-width="2" d="M328,-108C328,-108 288,-108 288,-108 282,-108 276,-102 276,-96 276,-96 276,-84 276,-84 276,-78 282,-72 288,-72 288,-72 328,-72 328,-72 334,-72 340,-78 340,-84 340,-84 340,-96 340,-96 340,-102 334,-108 328,-108"/>
<text text-anchor="middle" x="308" y="-87.5" font-family="sans" font-size="10.00" fill="#000000">taxassign</text>
</g>
<!-- 2&#45;&gt;0 -->
<g id="edge2" class="edge">
<title>2&#45;&gt;0</title>
<path fill="none" stroke="#c0c0c0" stroke-width="2" d="M286.2986,-71.8314C275.8079,-63.0485 263.0545,-52.3712 251.6806,-42.8489"/>
<polygon fill="#c0c0c0" stroke="#c0c0c0" stroke-width="2" points="253.6089,-39.8986 243.6945,-36.1628 249.1153,-45.2659 253.6089,-39.8986"/>
</g>
<!-- 3 -->
<g id="node4" class="node">
<title>3</title>
<path fill="none" stroke="#567bd8" stroke-width="2" d="M156.5,-108C156.5,-108 101.5,-108 101.5,-108 95.5,-108 89.5,-102 89.5,-96 89.5,-96 89.5,-84 89.5,-84 89.5,-78 95.5,-72 101.5,-72 101.5,-72 156.5,-72 156.5,-72 162.5,-72 168.5,-78 168.5,-84 168.5,-84 168.5,-96 168.5,-96 168.5,-102 162.5,-108 156.5,-108"/>
<text text-anchor="middle" x="129" y="-87.5" font-family="sans" font-size="10.00" fill="#000000">seq_tracking</text>
</g>
<!-- 3&#45;&gt;0 -->
<g id="edge3" class="edge">
<title>3&#45;&gt;0</title>
<path fill="none" stroke="#c0c0c0" stroke-width="2" d="M152.4678,-71.8314C164.0327,-62.8779 178.1404,-51.9558 190.6183,-42.2955"/>
<polygon fill="#c0c0c0" stroke="#c0c0c0" stroke-width="2" points="192.775,-45.0521 198.5397,-36.1628 188.4898,-39.5171 192.775,-45.0521"/>
</g>
<!-- 4 -->
<g id="node5" class="node">
<title>4</title>
<path fill="none" stroke="#d8b456" stroke-width="2" d="M298.5,-180C298.5,-180 245.5,-180 245.5,-180 239.5,-180 233.5,-174 233.5,-168 233.5,-168 233.5,-156 233.5,-156 233.5,-150 239.5,-144 245.5,-144 245.5,-144 298.5,-144 298.5,-144 304.5,-144 310.5,-150 310.5,-156 310.5,-156 310.5,-168 310.5,-168 310.5,-174 304.5,-180 298.5,-180"/>
<text text-anchor="middle" x="272" y="-159.5" font-family="sans" font-size="10.00" fill="#000000">merge_clust</text>
</g>
<!-- 4&#45;&gt;1 -->
<g id="edge4" class="edge">
<title>4&#45;&gt;1</title>
<path fill="none" stroke="#c0c0c0" stroke-width="2" d="M259.3829,-143.8314C253.6828,-135.6232 246.8337,-125.7606 240.5641,-116.7323"/>
<polygon fill="#c0c0c0" stroke="#c0c0c0" stroke-width="2" points="243.3658,-114.6306 234.787,-108.4133 237.6162,-118.6234 243.3658,-114.6306"/>
</g>
<!-- 4&#45;&gt;2 -->
<g id="edge5" class="edge">
<title>4&#45;&gt;2</title>
<path fill="none" stroke="#c0c0c0" stroke-width="2" d="M281.0843,-143.8314C285.0615,-135.8771 289.8155,-126.369 294.2139,-117.5723"/>
<polygon fill="#c0c0c0" stroke="#c0c0c0" stroke-width="2" points="297.4517,-118.9228 298.7934,-108.4133 291.1907,-115.7923 297.4517,-118.9228"/>
</g>
<!-- 4&#45;&gt;3 -->
<g id="edge12" class="edge">
<title>4&#45;&gt;3</title>
<path fill="none" stroke="#c0c0c0" stroke-width="2" d="M235.9151,-143.8314C217.2011,-134.4089 194.1568,-122.8062 174.26,-112.7883"/>
<polygon fill="#c0c0c0" stroke="#c0c0c0" stroke-width="2" points="175.5792,-109.5339 165.0734,-108.1628 172.4311,-115.7861 175.5792,-109.5339"/>
</g>
<!-- 5 -->
<g id="node6" class="node">
<title>5</title>
<path fill="none" stroke="#b6d856" stroke-width="2" d="M72,-684C72,-684 12,-684 12,-684 6,-684 0,-678 0,-672 0,-672 0,-660 0,-660 0,-654 6,-648 12,-648 12,-648 72,-648 72,-648 78,-648 84,-654 84,-660 84,-660 84,-672 84,-672 84,-678 78,-684 72,-684"/>
<text text-anchor="middle" x="42" y="-663.5" font-family="sans" font-size="10.00" fill="#000000">merge_paired</text>
</g>
<!-- 5&#45;&gt;3 -->
<g id="edge6" class="edge">
<title>5&#45;&gt;3</title>
<path fill="none" stroke="#c0c0c0" stroke-width="2" d="M36.274,-647.5668C28.3484,-620.3758 15,-567.7842 15,-522 15,-522 15,-522 15,-234 15,-183.147 59.2447,-139.7674 92.6064,-114.2861"/>
<polygon fill="#c0c0c0" stroke="#c0c0c0" stroke-width="2" points="94.8693,-116.9655 100.8202,-108.1998 90.7018,-111.3413 94.8693,-116.9655"/>
</g>
<!-- 6 -->
<g id="node7" class="node">
<title>6</title>
<path fill="none" stroke="#56b9d8" stroke-width="2" d="M85,-612C85,-612 55,-612 55,-612 49,-612 43,-606 43,-600 43,-600 43,-588 43,-588 43,-582 49,-576 55,-576 55,-576 85,-576 85,-576 91,-576 97,-582 97,-588 97,-588 97,-600 97,-600 97,-606 91,-612 85,-612"/>
<text text-anchor="middle" x="70" y="-591.5" font-family="sans" font-size="10.00" fill="#000000">alifilt</text>
</g>
<!-- 5&#45;&gt;6 -->
<g id="edge15" class="edge">
<title>5&#45;&gt;6</title>
<path fill="none" stroke="#c0c0c0" stroke-width="2" d="M49.0656,-647.8314C52.126,-639.9617 55.7779,-630.5712 59.1682,-621.8533"/>
<polygon fill="#c0c0c0" stroke="#c0c0c0" stroke-width="2" points="62.4768,-623.0019 62.8393,-612.4133 55.9527,-620.4647 62.4768,-623.0019"/>
</g>
<!-- 6&#45;&gt;3 -->
<g id="edge7" class="edge">
<title>6&#45;&gt;3</title>
<path fill="none" stroke="#c0c0c0" stroke-width="2" d="M66.4776,-575.8955C61.4982,-548.6824 53,-495.5642 53,-450 53,-450 53,-450 53,-234 53,-188.656 82.8384,-143.5999 105.1226,-116.2735"/>
<polygon fill="#c0c0c0" stroke="#c0c0c0" stroke-width="2" points="108.0006,-118.2889 111.7544,-108.3814 102.6415,-113.7856 108.0006,-118.2889"/>
</g>
<!-- 7 -->
<g id="node8" class="node">
<title>7</title>
<path fill="none" stroke="#d87556" stroke-width="2" d="M144.5,-540C144.5,-540 93.5,-540 93.5,-540 87.5,-540 81.5,-534 81.5,-528 81.5,-528 81.5,-516 81.5,-516 81.5,-510 87.5,-504 93.5,-504 93.5,-504 144.5,-504 144.5,-504 150.5,-504 156.5,-510 156.5,-516 156.5,-516 156.5,-528 156.5,-528 156.5,-534 150.5,-540 144.5,-540"/>
<text text-anchor="middle" x="119" y="-519.5" font-family="sans" font-size="10.00" fill="#000000">demultiplex</text>
</g>
<!-- 6&#45;&gt;7 -->
<g id="edge16" class="edge">
<title>6&#45;&gt;7</title>
<path fill="none" stroke="#c0c0c0" stroke-width="2" d="M82.3648,-575.8314C87.9509,-567.6232 94.663,-557.7606 100.8072,-548.7323"/>
<polygon fill="#c0c0c0" stroke="#c0c0c0" stroke-width="2" points="103.736,-550.6496 106.4687,-540.4133 97.949,-546.7112 103.736,-550.6496"/>
</g>
<!-- 7&#45;&gt;3 -->
<g id="edge8" class="edge">
<title>7&#45;&gt;3</title>
<path fill="none" stroke="#c0c0c0" stroke-width="2" d="M113.0619,-503.5823C104.8428,-476.4106 91,-423.8428 91,-378 91,-378 91,-378 91,-234 91,-192.3681 106.0328,-146.14 117.1881,-117.567"/>
<polygon fill="#c0c0c0" stroke="#c0c0c0" stroke-width="2" points="120.4578,-118.817 120.9412,-108.2332 113.9632,-116.2055 120.4578,-118.817"/>
</g>
<!-- 8 -->
<g id="node9" class="node">
<title>8</title>
<path fill="none" stroke="#56d8b9" stroke-width="2" d="M163,-468C163,-468 131,-468 131,-468 125,-468 119,-462 119,-456 119,-456 119,-444 119,-444 119,-438 125,-432 131,-432 131,-432 163,-432 163,-432 169,-432 175,-438 175,-444 175,-444 175,-456 175,-456 175,-462 169,-468 163,-468"/>
<text text-anchor="middle" x="147" y="-447.5" font-family="sans" font-size="10.00" fill="#000000">basicfilt</text>
</g>
<!-- 7&#45;&gt;8 -->
<g id="edge17" class="edge">
<title>7&#45;&gt;8</title>
<path fill="none" stroke="#c0c0c0" stroke-width="2" d="M126.0656,-503.8314C129.126,-495.9617 132.7779,-486.5712 136.1682,-477.8533"/>
<polygon fill="#c0c0c0" stroke="#c0c0c0" stroke-width="2" points="139.4768,-479.0019 139.8393,-468.4133 132.9527,-476.4647 139.4768,-479.0019"/>
</g>
<!-- 8&#45;&gt;3 -->
<g id="edge9" class="edge">
<title>8&#45;&gt;3</title>
<path fill="none" stroke="#c0c0c0" stroke-width="2" d="M143.2704,-431.9053C137.9981,-404.7046 129,-351.6021 129,-306 129,-306 129,-306 129,-234 129,-193.876 129,-147.4631 129,-118.4177"/>
<polygon fill="#c0c0c0" stroke="#c0c0c0" stroke-width="2" points="132.5001,-118.1853 129,-108.1854 125.5001,-118.1854 132.5001,-118.1853"/>
</g>
<!-- 12 -->
<g id="node13" class="node">
<title>12</title>
<path fill="none" stroke="#d89556" stroke-width="2" d="M217,-396C217,-396 173,-396 173,-396 167,-396 161,-390 161,-384 161,-384 161,-372 161,-372 161,-366 167,-360 173,-360 173,-360 217,-360 217,-360 223,-360 229,-366 229,-372 229,-372 229,-384 229,-384 229,-390 223,-396 217,-396"/>
<text text-anchor="middle" x="195" y="-375.5" font-family="sans" font-size="10.00" fill="#000000">split_fasta</text>
</g>
<!-- 8&#45;&gt;12 -->
<g id="edge20" class="edge">
<title>8&#45;&gt;12</title>
<path fill="none" stroke="#c0c0c0" stroke-width="2" d="M159.1124,-431.8314C164.5281,-423.7079 171.0242,-413.9637 176.9921,-405.0118"/>
<polygon fill="#c0c0c0" stroke="#c0c0c0" stroke-width="2" points="180.0896,-406.6753 182.7245,-396.4133 174.2653,-402.7923 180.0896,-406.6753"/>
</g>
<!-- 9 -->
<g id="node10" class="node">
<title>9</title>
<path fill="none" stroke="#59d856" stroke-width="2" d="M229,-324C229,-324 169,-324 169,-324 163,-324 157,-318 157,-312 157,-312 157,-300 157,-300 157,-294 163,-288 169,-288 169,-288 229,-288 229,-288 235,-288 241,-294 241,-300 241,-300 241,-312 241,-312 241,-318 235,-324 229,-324"/>
<text text-anchor="middle" x="199" y="-303.5" font-family="sans" font-size="10.00" fill="#000000">merge_derepl</text>
</g>
<!-- 9&#45;&gt;3 -->
<g id="edge10" class="edge">
<title>9&#45;&gt;3</title>
<path fill="none" stroke="#c0c0c0" stroke-width="2" d="M193.1522,-287.9555C180.928,-250.235 152.5987,-162.8188 138.0222,-117.8399"/>
<polygon fill="#c0c0c0" stroke="#c0c0c0" stroke-width="2" points="141.2928,-116.579 134.8803,-108.1451 134.6338,-118.737 141.2928,-116.579"/>
</g>
<!-- 10 -->
<g id="node11" class="node">
<title>10</title>
<path fill="none" stroke="#56d87b" stroke-width="2" d="M244.5,-252C244.5,-252 207.5,-252 207.5,-252 201.5,-252 195.5,-246 195.5,-240 195.5,-240 195.5,-228 195.5,-228 195.5,-222 201.5,-216 207.5,-216 207.5,-216 244.5,-216 244.5,-216 250.5,-216 256.5,-222 256.5,-228 256.5,-228 256.5,-240 256.5,-240 256.5,-246 250.5,-252 244.5,-252"/>
<text text-anchor="middle" x="226" y="-231.5" font-family="sans" font-size="10.00" fill="#000000">otu_clust</text>
</g>
<!-- 9&#45;&gt;10 -->
<g id="edge19" class="edge">
<title>9&#45;&gt;10</title>
<path fill="none" stroke="#c0c0c0" stroke-width="2" d="M205.8132,-287.8314C208.7644,-279.9617 212.2858,-270.5712 215.555,-261.8533"/>
<polygon fill="#c0c0c0" stroke="#c0c0c0" stroke-width="2" points="218.8609,-263.0055 219.095,-252.4133 212.3066,-260.5476 218.8609,-263.0055"/>
</g>
<!-- 10&#45;&gt;3 -->
<g id="edge11" class="edge">
<title>10&#45;&gt;3</title>
<path fill="none" stroke="#c0c0c0" stroke-width="2" d="M218.8592,-215.8569C211.0128,-197.0146 197.3301,-167.1134 181,-144 173.9135,-133.9699 164.9864,-123.9974 156.5382,-115.4027"/>
<polygon fill="#c0c0c0" stroke="#c0c0c0" stroke-width="2" points="158.8663,-112.7825 149.2957,-108.2377 153.9432,-117.7588 158.8663,-112.7825"/>
</g>
<!-- 10&#45;&gt;4 -->
<g id="edge13" class="edge">
<title>10&#45;&gt;4</title>
<path fill="none" stroke="#c0c0c0" stroke-width="2" d="M237.6077,-215.8314C242.7978,-207.7079 249.0232,-197.9637 254.7425,-189.0118"/>
<polygon fill="#c0c0c0" stroke="#c0c0c0" stroke-width="2" points="257.8015,-190.7246 260.236,-180.4133 251.9026,-186.9559 257.8015,-190.7246"/>
</g>
<!-- 11 -->
<g id="node12" class="node">
<title>11</title>
<path fill="none" stroke="#78d856" stroke-width="2" d="M64,-756C64,-756 20,-756 20,-756 14,-756 8,-750 8,-744 8,-744 8,-732 8,-732 8,-726 14,-720 20,-720 20,-720 64,-720 64,-720 70,-720 76,-726 76,-732 76,-732 76,-744 76,-744 76,-750 70,-756 64,-756"/>
<text text-anchor="middle" x="42" y="-741" font-family="sans" font-size="10.00" fill="#000000">split_fastq</text>
<text text-anchor="middle" x="42" y="-730" font-family="sans" font-size="10.00" fill="#000000">run: data</text>
</g>
<!-- 11&#45;&gt;5 -->
<g id="edge14" class="edge">
<title>11&#45;&gt;5</title>
<path fill="none" stroke="#c0c0c0" stroke-width="2" d="M42,-719.8314C42,-712.131 42,-702.9743 42,-694.4166"/>
<polygon fill="#c0c0c0" stroke="#c0c0c0" stroke-width="2" points="45.5001,-694.4132 42,-684.4133 38.5001,-694.4133 45.5001,-694.4132"/>
</g>
<!-- 12&#45;&gt;9 -->
<g id="edge18" class="edge">
<title>12&#45;&gt;9</title>
<path fill="none" stroke="#c0c0c0" stroke-width="2" d="M196.0094,-359.8314C196.4372,-352.131 196.9459,-342.9743 197.4213,-334.4166"/>
<polygon fill="#c0c0c0" stroke="#c0c0c0" stroke-width="2" points="200.9169,-334.592 197.977,-324.4133 193.9276,-334.2037 200.9169,-334.592"/>
</g>
</g>
</svg>
